<svg xmlns="http://www.w3.org/2000/svg" viewBox="0 0 132.74 40"><title>amazon</title><g id="Layer_2" data-name="Layer 2"><g id="DESKTOP"><g id="ПОЧЕМУ"><g id="Amazon"><g id="_Group_" data-name="&lt;Group&gt;"><g id="_Group_2" data-name="&lt;Group&gt;"><g id="_Group_3" data-name="&lt;Group&gt;"><path id="_Path_" data-name="&lt;Path&gt;" d="M82.35,31.28C74.64,37,63.46,40,53.83,40A51.65,51.65,0,0,1,19,26.71c-.71-.65-.07-1.54.8-1a70.05,70.05,0,0,0,34.86,9.25,69.35,69.35,0,0,0,26.59-5.44c1.3-.55,2.39.86,1.12,1.8" fill="#fcaf17" fill-rule="evenodd"/><path id="_Path_2" data-name="&lt;Path&gt;" d="M85.56,27.62c-1-1.26-6.52-.6-9-.3-.75.09-.87-.57-.19-1,4.41-3.11,11.65-2.21,12.49-1.17s-.22,8.3-4.36,11.76c-.64.53-1.24.24-1-.46.93-2.32,3-7.53,2-8.79" fill="#fcaf17" fill-rule="evenodd"/><path id="_Path_3" data-name="&lt;Path&gt;" d="M76.73,4.37v-3a.74.74,0,0,1,.76-.77H91a.75.75,0,0,1,.78.76V3.94a4.15,4.15,0,0,1-1,1.89l-7,10a15,15,0,0,1,7.7,1.65,1.39,1.39,0,0,1,.72,1.18v3.22c0,.44-.48.95-1,.68a15.58,15.58,0,0,0-14.27,0c-.47.25-1-.26-1-.7V18.83a3.56,3.56,0,0,1,.5-2.07l8.1-11.63h-7a.75.75,0,0,1-.78-.76" fill="#231f20" fill-rule="evenodd"/><path id="_Path_4" data-name="&lt;Path&gt;" d="M27.47,23.19H23.36a.77.77,0,0,1-.73-.7V1.41a.77.77,0,0,1,.79-.76h3.83a.76.76,0,0,1,.74.71V4.11h.08A5.42,5.42,0,0,1,33.48.21c2.57,0,4.18,1.24,5.33,3.9a6.07,6.07,0,0,1,10.43-1.6c1.3,1.77,1,4.35,1,6.61V22.43a.77.77,0,0,1-.79.76h-4.1a.77.77,0,0,1-.74-.76V11.25a27.32,27.32,0,0,0-.12-3.95,2.14,2.14,0,0,0-2.41-1.82,2.73,2.73,0,0,0-2.46,1.74,12.74,12.74,0,0,0-.38,4V22.43a.78.78,0,0,1-.79.76H34.37a.77.77,0,0,1-.73-.76V11.25c0-2.35.38-5.81-2.53-5.81s-2.84,3.37-2.84,5.81V22.43a.77.77,0,0,1-.79.76" fill="#231f20" fill-rule="evenodd"/><path id="_Compound_Path_" data-name="&lt;Compound Path&gt;" d="M103.4.2c6.09,0,9.39,5.24,9.39,11.9,0,6.43-3.64,11.53-9.39,11.53-6,0-9.25-5.24-9.25-11.76S97.45.2,103.4.2m0,4.31c-3,0-3.23,4.12-3.23,6.7s0,8.07,3.19,8.07,3.33-4.43,3.33-7.14a19.35,19.35,0,0,0-.61-5.59,2.57,2.57,0,0,0-2.68-2" fill="#231f20" fill-rule="evenodd"/><path id="_Path_5" data-name="&lt;Path&gt;" d="M120.7,23.19h-4.09a.78.78,0,0,1-.74-.76V1.34a.78.78,0,0,1,.79-.69h3.81a.77.77,0,0,1,.73.59V4.46h.08c1.15-2.88,2.76-4.25,5.6-4.25a5.37,5.37,0,0,1,4.79,2.48c1.08,1.69,1.08,4.53,1.08,6.57V22.52a.78.78,0,0,1-.79.67h-4.12a.78.78,0,0,1-.73-.67V11.07c0-2.3.27-5.67-2.57-5.67a2.68,2.68,0,0,0-2.38,1.68,9.45,9.45,0,0,0-.65,4V22.43a.79.79,0,0,1-.8.76" fill="#231f20" fill-rule="evenodd"/><path id="_Compound_Path_2" data-name="&lt;Compound Path&gt;" d="M66,13.12a8.05,8.05,0,0,1-.77,4.36,3.33,3.33,0,0,1-2.84,1.86c-1.58,0-2.5-1.2-2.5-3,0-3.49,3.14-4.13,6.11-4.13Zm4.14,10a.83.83,0,0,1-1,.1,9.91,9.91,0,0,1-2.35-2.74c-2.26,2.3-3.85,3-6.77,3-3.46,0-6.15-2.14-6.15-6.4a7,7,0,0,1,4.38-6.72c2.23-1,5.34-1.16,7.72-1.42V8.41a5.21,5.21,0,0,0-.5-3,2.74,2.74,0,0,0-2.31-1.07,3.13,3.13,0,0,0-3.3,2.47.86.86,0,0,1-.71.75l-4-.43a.72.72,0,0,1-.61-.86C55.46,1.46,59.82,0,63.73,0c2,0,4.62.53,6.19,2.05,2,1.86,1.81,4.35,1.81,7.07v6.4a5.59,5.59,0,0,0,1.55,3.8c.26.38.32.82,0,1.09-.84.71-2.33,2-3.15,2.74Z" fill="#231f20" fill-rule="evenodd"/><path id="_Compound_Path_3" data-name="&lt;Compound Path&gt;" d="M12.11,13.12a8.15,8.15,0,0,1-.77,4.36,3.35,3.35,0,0,1-2.85,1.86c-1.57,0-2.5-1.2-2.5-3,0-3.49,3.15-4.13,6.12-4.13Zm4.14,10a.83.83,0,0,1-1,.1,10,10,0,0,1-2.36-2.74c-2.25,2.3-3.85,3-6.77,3C2.69,23.48,0,21.34,0,17.08a7,7,0,0,1,4.38-6.72c2.23-1,5.34-1.16,7.73-1.42V8.41a5.29,5.29,0,0,0-.5-3A2.74,2.74,0,0,0,9.3,4.36,3.12,3.12,0,0,0,6,6.83a.86.86,0,0,1-.71.75l-4-.43a.73.73,0,0,1-.61-.86C1.61,1.46,6,0,9.88,0c2,0,4.61.53,6.19,2.05,2,1.86,1.8,4.35,1.8,7.07v6.4a5.59,5.59,0,0,0,1.55,3.8c.26.38.32.82,0,1.09-.84.71-2.33,2-3.15,2.74Z" fill="#231f20" fill-rule="evenodd"/></g></g></g></g></g></g></g></svg>