<?xml version="1.0" encoding="utf-8"?>
<!-- Generator: Adobe Illustrator 22.1.0, SVG Export Plug-In . SVG Version: 6.00 Build 0)  -->
<svg version="1.1" id="Layer_1" xmlns="http://www.w3.org/2000/svg" xmlns:xlink="http://www.w3.org/1999/xlink" x="0px" y="0px"
	 viewBox="0 0 118 113.9" style="enable-background:new 0 0 118 113.9;" xml:space="preserve">
<style type="text/css">
	.st0{clip-path:url(#SVGID_2_);}
	.st1{fill:url(#SVGID_3_);fill-opacity:0.3;filter:url(#Adobe_OpacityMaskFilter);}
	.st2{mask:url(#mask_1_);}
	.st3{opacity:0.5;}
	.st4{fill:#FFFFFF;}
</style>
<g>
	<defs>
		<rect id="SVGID_1_" width="118" height="113.9"/>
	</defs>
	<clipPath id="SVGID_2_">
		<use xlink:href="#SVGID_1_"  style="overflow:visible;"/>
	</clipPath>
	<g id="Layer_2_1_" class="st0">
		<g id="MOBILE">
			<g id="ПОЧЕМУ">
				<defs>
					<filter id="Adobe_OpacityMaskFilter" filterUnits="userSpaceOnUse" x="0" y="-97.4" width="220" height="211.3">
						<feColorMatrix  type="matrix" values="1 0 0 0 0  0 1 0 0 0  0 0 1 0 0  0 0 0 1 0"/>
					</filter>
				</defs>
				<mask maskUnits="userSpaceOnUse" x="0" y="-97.4" width="220" height="211.3" id="mask_1_">
					
						<linearGradient id="SVGID_3_" gradientUnits="userSpaceOnUse" x1="51.5" y1="-99.0391" x2="51.5" y2="20.8908" gradientTransform="matrix(1 0 0 -1 0 19.1617)">
						<stop  offset="0" style="stop-color:#FFFFFF"/>
						<stop  offset="1" style="stop-color:#103199"/>
					</linearGradient>
					<rect x="-15" y="-1.7" class="st1" width="133" height="119.9"/>
				</mask>
				<g class="st2">
					<g class="st3">
						<path class="st4" d="M110,113.9C49.3,113.9,0,66.5,0,8.2S49.3-97.4,110-97.4S220-50,220,8.2S170.6,113.9,110,113.9z M110-77.4
							C60.4-77.4,20-39,20,8.2s40.4,85.6,90,85.6s90-38.4,90-85.6S159.6-77.4,110-77.4z"/>
					</g>
				</g>
			</g>
		</g>
	</g>
</g>
</svg>
