<?xml version="1.0" encoding="utf-8"?>
<!-- Generator: Adobe Illustrator 22.1.0, SVG Export Plug-In . SVG Version: 6.00 Build 0)  -->
<svg version="1.1" id="Layer_1" xmlns="http://www.w3.org/2000/svg" xmlns:xlink="http://www.w3.org/1999/xlink" x="0px" y="0px"
	 viewBox="0 0 570.3 536.8" style="enable-background:new 0 0 570.3 536.8;" xml:space="preserve">
<style type="text/css">
	.st0{clip-path:url(#SVGID_2_);}
	.st1{fill:url(#SVGID_3_);fill-opacity:0.3;filter:url(#Adobe_OpacityMaskFilter);}
	.st2{mask:url(#mask_1_);}
	.st3{opacity:0.5;}
	.st4{fill:#FFFFFF;}
</style>
<g>
	<defs>
		<rect id="SVGID_1_" width="570.3" height="536.8"/>
	</defs>
	<clipPath id="SVGID_2_">
		<use xlink:href="#SVGID_1_"  style="overflow:visible;"/>
	</clipPath>
	<title>circle-large</title>
	<g id="Layer_2_1_" class="st0">
		<g id="MOBILE">
			<g id="ПОЧЕМУ">
				<defs>
					<filter id="Adobe_OpacityMaskFilter" filterUnits="userSpaceOnUse" x="-529.8" y="0" width="1100" height="1056.4">
						<feColorMatrix  type="matrix" values="1 0 0 0 0  0 1 0 0 0  0 0 1 0 0  0 0 0 1 0"/>
					</filter>
				</defs>
				<mask maskUnits="userSpaceOnUse" x="-529.8" y="0" width="1100" height="1056.4" id="mask_1_">
					
						<linearGradient id="SVGID_3_" gradientUnits="userSpaceOnUse" x1="335.75" y1="509.72" x2="335.75" y2="1091.21" gradientTransform="matrix(1 0 0 -1 0 1058)">
						<stop  offset="0" style="stop-color:#FFFFFF"/>
						<stop  offset="1" style="stop-color:#103199"/>
					</linearGradient>
					<rect x="0.3" y="-33.2" class="st1" width="671" height="581.5"/>
				</mask>
				<g class="st2">
					<g class="st3">
						<path class="st4" d="M20.3,1056.4c-73.1,0.2-145.6-13.8-213.4-41.2c-64.9-26.1-124.2-64.4-174.7-112.7
							c-50.1-47.6-90.3-104.7-118.3-167.9c-58.1-131.4-58.1-281.3,0-412.7c28-63.2,68.2-120.3,118.3-167.9
							c50.5-48.3,109.9-86.6,174.7-112.7c136.9-55,289.8-55,426.7,0c64.9,26.1,124.2,64.4,174.7,112.7
							c50.1,47.6,90.3,104.7,118.3,167.9c58.1,131.4,58.1,281.3,0,412.7c-28,63.2-68.2,120.3-118.3,167.9
							c-50.5,48.3-109.9,86.6-174.7,112.7C165.8,1042.6,93.4,1056.6,20.3,1056.4z M20.3,100c-248.1,0-450,192.1-450,428.2
							s201.9,428.2,450,428.2s450-192.1,450-428.2S268.4,100,20.3,100z"/>
					</g>
				</g>
			</g>
		</g>
	</g>
</g>
</svg>
