<svg xmlns="http://www.w3.org/2000/svg" viewBox="0 0 143.71 30"><title>uber</title><g id="Layer_2" data-name="Layer 2"><g id="DESKTOP"><g id="ПОЧЕМУ"><g id="Uber"><g id="Page-1"><g id="Group"><path id="Fill-1" d="M22.61.72V17.26c0,5.53-2.45,7.82-8.18,7.82s-8.18-2.29-8.18-7.82V0H.72A.64.64,0,0,0,0,.72V17.53C0,26.77,5.89,30,14.43,30s14.42-3.23,14.42-12.47V0H23.33a.64.64,0,0,0-.72.72" fill="#000203"/><path id="Fill-2" d="M102.67,4.8a.78.78,0,0,0,.82-.48l1.6-4c.09-.24,0-.36-.25-.36H82.6c-2.08,0-2.87.63-2.87,2.05V27.74c0,1.2.61,1.75,2.21,1.75h20.73a.77.77,0,0,0,.82-.49l1.6-3.95c.09-.24,0-.36-.25-.36h-19V19.47c0-1.81,1-2.63,3.68-2.63h8.24a.78.78,0,0,0,.82-.48l1.54-3.8c.09-.25,0-.37-.25-.37h-14V4.8h16.81" fill="#000203"/><path id="Fill-3" d="M57.72,24.75H46.82v-5.4c0-1.82,1-2.63,3.68-2.63h7.22c3.47,0,4.44,1.33,4.44,4S61.19,24.75,57.72,24.75Zm-10.9-20h9.75c3.26,0,4.17,1.23,4.17,3.77s-.91,3.77-4.17,3.77H46.82Zm16.69,9.2c2.42-1.26,3.41-3.65,3.41-6.46C66.92,1,61.61,0,56.12,0H43.56C41.48,0,40.7.63,40.7,2.05V27.74c0,1.2.6,1.75,2.2,1.75H58.35c5.83,0,10-2.27,10-8.15,0-3.53-1.51-6.52-4.83-7.4Z" fill="#000203"/><path id="Fill-4" d="M132.11,13.67H121.85V4.74h10.26c3.83,0,4.68,1.48,4.68,4.47S135.94,13.67,132.11,13.67ZM143.64,29,137,17.63c3.29-.85,5.95-3,5.95-8.55C143,1.93,138.54,0,131.2,0H118.59c-2.08,0-2.87.63-2.87,2.05V28.76a.64.64,0,0,0,.73.73h5.4v-8.6c0-1.82,1-2.63,3.68-2.63H131l6,10.74a.81.81,0,0,0,.81.49h5.62c.39,0,.39-.34.27-.52Z" fill="#000203"/></g></g></g></g></g></g></svg>